<?xml version="1.0" encoding="UTF-8" standalone="no"?>
<!DOCTYPE svg PUBLIC "-//W3C//DTD SVG 1.1//EN" "http://www.w3.org/Graphics/SVG/1.1/DTD/svg11.dtd">
<svg width="100%" height="100%" viewBox="0 0 3300 2400" version="1.1" xmlns="http://www.w3.org/2000/svg" xmlns:xlink="http://www.w3.org/1999/xlink" xml:space="preserve" xmlns:serif="http://www.serif.com/" style="fill-rule:evenodd;clip-rule:evenodd;stroke-linejoin:round;stroke-miterlimit:2;">
    <g>
        <path d="M666.039,637.865C669.191,627.547 678.712,620.499 689.5,620.499C700.288,620.499 709.81,627.547 712.961,637.865L811.773,961.399C820.152,988.833 835.142,1013.79 855.425,1034.073C875.708,1054.356 900.665,1069.346 928.099,1077.725L1251.633,1176.537C1261.951,1179.689 1268.999,1189.21 1268.999,1199.998C1268.999,1210.786 1261.951,1220.308 1251.633,1223.459L928.099,1322.271C900.665,1330.65 875.708,1345.64 855.425,1365.923C835.142,1386.206 820.152,1411.163 811.773,1438.597L712.961,1762.131C709.809,1772.449 700.288,1779.497 689.5,1779.497C678.712,1779.497 669.19,1772.449 666.039,1762.131L567.227,1438.597C558.848,1411.163 543.858,1386.206 523.575,1365.923C503.292,1345.64 478.335,1330.65 450.901,1322.271L127.367,1223.459C117.049,1220.307 110.001,1210.786 110.001,1199.998C110.001,1189.21 117.049,1179.688 127.367,1176.537L450.901,1077.725C478.335,1069.346 503.292,1054.356 523.575,1034.073C543.858,1013.79 558.848,988.833 567.227,961.399L666.039,637.865Z" style="fill:rgb(124,70,0);"/>
    </g>
    <g>
        <g>
            <g>
                <g transform="matrix(1,0,0,1,1362.333,1512.328)">
                    <path d="M68.691,0L68.691,-636.462L111.622,-636.462L111.622,-40.785L454.002,-40.785L454.002,0L68.691,0Z" style="fill:rgb(124,70,0);"/>
                    <path d="M677.247,11.806C634.316,11.806 597.466,-2.147 566.698,-30.052C535.93,-57.958 520.547,-91.588 520.547,-130.942L520.547,-457.222L563.478,-457.222L563.478,-130.942C563.478,-101.605 574.569,-76.204 596.75,-54.738C618.932,-33.988 645.764,-23.612 677.247,-23.612C714.455,-23.612 747.727,-37.923 777.063,-66.544C806.4,-95.165 825.004,-131.299 832.875,-174.947L832.875,-457.222L875.806,-457.222L875.806,0L832.875,0L832.875,-80.497C819.995,-52.591 799.245,-30.052 770.624,-12.88C742.718,3.578 711.593,11.806 677.247,11.806Z" style="fill:rgb(124,70,0);"/>
                </g>
                <g transform="matrix(1,0,0,1,2298.19,1512.328)">
                    <path d="M111.622,0L68.691,0L68.691,-457.222L111.622,-457.222L111.622,-379.945C124.502,-407.135 142.748,-428.601 166.36,-444.343C189.973,-460.8 215.374,-469.029 242.564,-469.029C274.763,-469.029 303.026,-460.442 327.354,-443.27C352.398,-425.381 368.497,-402.842 375.652,-375.652C389.247,-404.273 409.64,-426.812 436.83,-443.27C464.735,-460.442 495.145,-469.029 528.06,-469.029C568.845,-469.029 603.906,-455.076 633.242,-427.17C661.863,-399.265 676.174,-365.635 676.174,-326.281L676.174,0L633.242,0L633.242,-326.281C633.242,-356.333 622.867,-382.092 602.117,-403.558C582.082,-425.024 557.396,-435.757 528.06,-435.757C494.43,-435.757 464.378,-423.95 437.903,-400.338C411.429,-376.725 394.971,-346.673 388.532,-310.181L388.532,0L345.6,0L345.6,-326.281C345.6,-356.333 335.94,-382.092 316.621,-403.558C297.302,-425.024 274.047,-435.757 246.857,-435.757C214.658,-435.757 185.68,-423.235 159.92,-398.191C134.877,-372.432 118.778,-340.234 111.622,-301.595L111.622,0Z" style="fill:rgb(124,70,0);"/>
                    <path d="M850.047,0L807.116,0L807.116,-457.222L850.047,-457.222L850.047,0ZM807.116,-570.991L807.116,-636.462L850.047,-636.462L850.047,-570.991L807.116,-570.991Z" style="fill:rgb(124,70,0);"/>
                </g>
            </g>
        </g>
    </g>
</svg>
